<?xml version="1.0" encoding="utf-8"?>
<svg viewBox="0 0 500 500" xmlns="http://www.w3.org/2000/svg">
  <defs>
    <linearGradient gradientUnits="userSpaceOnUse" x1="213.021" y1="73.553" x2="213.021" y2="264.469" id="gradient-0" gradientTransform="matrix(1, 0, 0, 1, 28.938908, 22.10611)">
      <stop offset="0" style="stop-color: rgba(102, 242, 107, 1)"/>
      <stop offset="1" style="stop-color: rgba(19, 223, 26, 1)"/>
    </linearGradient>
    <linearGradient gradientUnits="userSpaceOnUse" x1="213.021" y1="73.553" x2="213.021" y2="264.469" id="gradient-1" gradientTransform="matrix(1, 0, 0, 1, 28.938908, 22.10611)">
      <stop offset="0" style="stop-color: rgba(74, 3, 255, 1)"/>
      <stop offset="1" style="stop-color: rgba(44, 0, 156, 1)"/>
    </linearGradient>
    <filter id="drop-shadow-filter-0" color-interpolation-filters="sRGB" x="-500%" y="-500%" width="1000%" height="1000%">
      <feGaussianBlur in="SourceAlpha" stdDeviation="5"/>
      <feOffset dx="5" dy="5"/>
      <feComponentTransfer result="offsetblur">
        <feFuncA id="spread-ctrl" type="linear" slope="2"/>
      </feComponentTransfer>
      <feFlood flood-color="rgba(0,0,0,0.3)"/>
      <feComposite in2="offsetblur" operator="in"/>
      <feMerge>
        <feMergeNode/>
        <feMergeNode in="SourceGraphic"/>
      </feMerge>
    </filter>
  </defs>
  <path d="M 175.09 213.063 Q 175.09 218.702 173.662 223.207 Q 172.234 227.711 169.89 231.154 Q 167.546 234.596 164.397 237.013 Q 161.248 239.43 157.878 240.968 Q 154.509 242.506 151.03 243.239 Q 147.551 243.971 144.475 243.971 L 71.013 243.971 L 71.013 224.928 L 144.475 224.928 Q 149.968 224.928 153.008 221.705 Q 156.047 218.483 156.047 213.063 Q 156.047 210.426 155.242 208.229 Q 154.436 206.032 152.935 204.42 Q 151.433 202.809 149.272 201.93 Q 147.112 201.051 144.475 201.051 L 100.676 201.051 Q 96.062 201.051 90.715 199.403 Q 85.369 197.755 80.791 194.093 Q 76.213 190.431 73.174 184.498 Q 70.134 178.566 70.134 169.996 Q 70.134 161.427 73.174 155.531 Q 76.213 149.635 80.791 145.936 Q 85.369 142.238 90.715 140.59 Q 96.062 138.942 100.676 138.942 L 165.496 138.942 L 165.496 157.985 L 100.676 157.985 Q 95.256 157.985 92.217 161.281 Q 89.177 164.576 89.177 169.996 Q 89.177 175.49 92.217 178.676 Q 95.256 181.862 100.676 181.862 L 144.475 181.862 L 144.622 181.862 Q 147.698 181.935 151.14 182.704 Q 154.582 183.473 157.988 185.084 Q 161.394 186.696 164.47 189.149 Q 167.546 191.603 169.927 195.045 Q 172.307 198.488 173.699 202.955 Q 175.09 207.423 175.09 213.063 Z" transform="matrix(1.327904, 0, 0, 2.092666, -77.544731, -150.027023)" style="fill: url(#gradient-0); paint-order: stroke; stroke: url(#gradient-1); stroke-width: 10px; white-space: pre; filter: url(#drop-shadow-filter-0);"/>
  <path d="M 284.949 243.971 L 216.248 243.971 Q 213.611 243.971 210.571 243.348 Q 207.532 242.726 204.566 241.408 Q 201.599 240.089 198.889 238.002 Q 196.179 235.914 194.092 232.948 Q 192.005 229.982 190.759 226.063 Q 189.514 222.145 189.514 217.238 L 189.514 165.675 Q 189.514 163.038 190.137 159.999 Q 190.759 156.959 192.078 153.993 Q 193.396 151.027 195.52 148.317 Q 197.644 145.607 200.61 143.519 Q 203.577 141.432 207.459 140.187 Q 211.34 138.942 216.248 138.942 L 284.949 138.942 L 284.949 157.985 L 216.248 157.985 Q 212.512 157.985 210.535 159.962 Q 208.557 161.94 208.557 165.822 L 208.557 217.238 Q 208.557 220.9 210.571 222.914 Q 212.586 224.928 216.248 224.928 L 284.949 224.928 Z" transform="matrix(1.327904, 0, 0, 2.092666, -77.544731, -150.027023)" style="fill: url(#gradient-0); paint-order: stroke; stroke: url(#gradient-1); stroke-width: 10px; white-space: pre; filter: url(#drop-shadow-filter-0);"/>
  <path d="M 407.916 174.244 Q 407.916 180.763 406.304 185.89 Q 404.693 191.017 401.946 194.935 Q 399.2 198.854 395.611 201.637 Q 392.022 204.42 388.104 206.215 Q 384.185 208.009 380.193 208.815 Q 376.202 209.62 372.686 209.62 L 412.457 243.971 L 383.013 243.971 L 343.316 209.62 L 329.62 209.62 L 329.62 190.577 L 372.686 190.577 Q 376.275 190.284 379.241 189.076 Q 382.208 187.867 384.368 185.817 Q 386.529 183.766 387.701 180.873 Q 388.873 177.98 388.873 174.244 L 388.873 162.233 Q 388.873 160.621 388.47 159.779 Q 388.067 158.937 387.444 158.534 Q 386.822 158.131 386.126 158.058 Q 385.43 157.985 384.844 157.985 L 322.002 157.985 L 322.002 243.971 L 302.959 243.971 L 302.959 148.536 Q 302.959 146.559 303.692 144.801 Q 304.424 143.043 305.706 141.725 Q 306.988 140.407 308.746 139.674 Q 310.503 138.942 312.554 138.942 L 384.844 138.942 Q 391.216 138.942 395.611 141.249 Q 400.005 143.556 402.752 147.035 Q 405.499 150.514 406.707 154.542 Q 407.916 158.571 407.916 162.086 Z" transform="matrix(1.327904, 0, 0, 2.092666, -77.544731, -150.027023)" style="fill: url(#gradient-0); paint-order: stroke; stroke: url(#gradient-1); stroke-width: 10px; white-space: pre; filter: url(#drop-shadow-filter-0);"/>
</svg>