<?xml version="1.0" standalone="no"?>
<!DOCTYPE svg PUBLIC "-//W3C//DTD SVG 20010904//EN"
 "http://www.w3.org/TR/2001/REC-SVG-20010904/DTD/svg10.dtd">
<svg version="1.0" xmlns="http://www.w3.org/2000/svg"
 width="700.000000pt" height="700.000000pt" viewBox="0 0 700.000000 700.000000"
 preserveAspectRatio="xMidYMid meet">
<metadata>
Created by potrace 1.14, written by Peter Selinger 2001-2017
</metadata>
<g transform="translate(0.000000,700.000000) scale(0.100000,-0.100000)"
fill="#000000" stroke="none">
<path d="M3240 6799 c-900 -65 -1699 -415 -2280 -999 -544 -544 -830 -1211
-830 -1930 0 -563 172 -1086 513 -1565 40 -55 71 -102 70 -105 -83 -202 -118
-582 -102 -1095 14 -445 64 -776 140 -933 45 -93 88 -108 213 -76 248 64 741
405 1058 733 107 110 215 248 230 292 3 10 33 4 124 -24 220 -68 468 -119 729
-149 145 -17 626 -16 775 1 620 70 1150 256 1635 575 202 134 329 237 511 420
438 440 692 921 795 1511 30 170 38 549 15 725 -44 333 -126 595 -279 895
-484 943 -1510 1597 -2695 1715 -151 15 -479 20 -622 9z m-1406 -2114 c295
-62 523 -361 543 -711 10 -171 -22 -321 -103 -476 -54 -103 -193 -241 -291
-290 -292 -146 -621 -47 -810 243 -89 137 -133 292 -133 470 0 490 377 852
794 764z m1797 -21 c105 -31 189 -83 279 -173 73 -74 93 -101 137 -191 67
-135 83 -198 90 -346 9 -189 -26 -340 -111 -484 -86 -146 -219 -261 -357 -310
-89 -31 -250 -38 -338 -16 -237 61 -424 259 -503 532 -19 67 -23 102 -22 234
0 139 3 164 27 243 32 105 64 171 123 253 104 147 270 252 439 278 51 7 179
-3 236 -20z m1749 -9 c173 -46 335 -181 424 -353 116 -225 130 -499 38 -736
-80 -206 -259 -374 -457 -432 -73 -21 -209 -23 -285 -5 -331 80 -562 434 -536
821 22 339 235 628 517 704 71 19 229 20 299 1z"/>
</g>
</svg>
